<svg width="114" height="46" viewBox="0 0 114 46" fill="none" xmlns="http://www.w3.org/2000/svg">
<path d="M40.5764 10.5769C37.9597 7.0543 34.3052 4.43995 30.1263 3.10103C25.9474 1.76211 21.4541 1.7659 17.2775 3.11186C13.1009 4.45782 9.4508 7.07833 6.84 10.6053C4.22921 14.1323 2.78884 18.3885 2.72124 22.7761C2.65364 27.1637 3.96219 31.4623 6.4631 35.068C8.964 38.6737 12.5316 41.4054 16.6648 42.8794C20.7979 44.3534 25.289 44.4956 29.5072 43.2861C33.7253 42.0766 37.4586 39.576 40.1826 36.1358L37.5669 34.0646C35.2756 36.9583 32.1355 39.0615 28.5875 40.0789C25.0395 41.0963 21.262 40.9767 17.7855 39.7369C14.309 38.497 11.3082 36.1993 9.20464 33.1665C7.10107 30.1336 6.00042 26.518 6.05728 22.8275C6.11414 19.137 7.32566 15.557 9.52166 12.5904C11.7177 9.62375 14.7878 7.41959 18.3009 6.28747C21.8139 5.15535 25.5933 5.15217 29.1083 6.27836C32.6232 7.40456 35.6971 9.60355 37.8981 12.5664L40.5764 10.5769Z" fill="#11FF00"/>
<path d="M10.1543 30.6582V30.0282C10.3083 30.0282 10.5253 30.0072 10.8053 29.9652C11.0993 29.9232 11.3793 29.8392 11.6453 29.7132L16.9373 16.6932L16.6223 15.8112L18.3443 15.1812L23.6153 29.6922C23.8953 29.8322 24.1893 29.9232 24.4973 29.9652C24.8053 30.0072 25.0433 30.0282 25.2113 30.0282V30.6582H19.8143V30.0282C20.0103 30.0282 20.2903 30.0072 20.6543 29.9652C21.0183 29.9232 21.3543 29.8322 21.6623 29.6922L20.1083 25.4292H14.6063L12.8633 29.6922C13.1853 29.8322 13.5213 29.9232 13.8713 29.9652C14.2353 30.0072 14.5153 30.0282 14.7113 30.0282V30.6582H10.1543ZM15.0473 24.3582H19.7303L17.5253 18.2892L15.0473 24.3582ZM25.2072 36.1812C25.4732 35.9432 25.7672 35.6142 26.0892 35.1942C26.4112 34.7882 26.7192 34.2982 27.0132 33.7242C27.3212 33.1642 27.5592 32.5552 27.7272 31.8972C27.7972 31.6172 27.8462 31.3372 27.8742 31.0572C27.9022 30.7772 27.9232 30.5042 27.9372 30.2382V16.7772C27.6292 16.6372 27.2932 16.5462 26.9292 16.5042C26.5652 16.4622 26.2852 16.4412 26.0892 16.4412V15.8112H31.6332V16.4412C31.4372 16.4412 31.1572 16.4622 30.7932 16.5042C30.4432 16.5462 30.1072 16.6372 29.7852 16.7772V30.6582C29.5612 31.5822 29.2462 32.3942 28.8402 33.0942C28.4342 33.8082 28.0072 34.4172 27.5592 34.9212C27.1252 35.4252 26.7332 35.8172 26.3832 36.0972C26.0332 36.3912 25.7952 36.5802 25.6692 36.6642L25.2072 36.1812ZM38.0454 30.9522L34.3704 16.7562C34.1044 16.6302 33.8104 16.5462 33.4884 16.5042C33.1804 16.4622 32.9424 16.4412 32.7744 16.4412V15.8112H38.1084V16.4412C37.9124 16.4412 37.6324 16.4622 37.2684 16.5042C36.9184 16.5462 36.5894 16.6372 36.2814 16.7772L39.0954 27.6132L43.1484 17.6592H44.0304L47.8524 27.4032L50.4564 16.7772C50.1484 16.6372 49.8124 16.5462 49.4484 16.5042C49.0984 16.4622 48.8254 16.4412 48.6294 16.4412V15.8112H53.1234V16.4412C52.9694 16.4412 52.7454 16.4622 52.4514 16.5042C52.1574 16.5462 51.8774 16.6372 51.6114 16.7772L48.1254 30.9522H47.2644L43.1904 20.5152L38.9274 30.9522H38.0454ZM52.4972 26.1432C52.4972 25.1212 52.7002 24.2182 53.1062 23.4342C53.5122 22.6362 54.0512 22.0132 54.7232 21.5652C55.4092 21.1172 56.1652 20.9002 56.9912 20.9142C57.6912 20.9142 58.3072 21.0892 58.8392 21.4392C59.3712 21.7892 59.7702 22.2652 60.0362 22.8672C60.3162 23.4552 60.4142 24.1062 60.3302 24.8202L54.0302 25.1562V25.2192C54.0302 25.9472 54.1772 26.6262 54.4712 27.2562C54.7652 27.8722 55.1712 28.3692 55.6892 28.7472C56.2072 29.1112 56.7952 29.2932 57.4532 29.2932C57.9292 29.2932 58.3632 29.2022 58.7552 29.0202C59.1472 28.8242 59.4762 28.6072 59.7422 28.3692L60.1832 28.7472C59.9732 29.0552 59.6792 29.3702 59.3012 29.6922C58.9372 30.0142 58.5172 30.2872 58.0412 30.5112C57.5652 30.7212 57.0542 30.8262 56.5082 30.8262C55.7242 30.8262 55.0312 30.6092 54.4292 30.1752C53.8272 29.7412 53.3512 29.1672 53.0012 28.4532C52.6652 27.7392 52.4972 26.9692 52.4972 26.1432ZM56.4872 22.0062C55.8852 22.0062 55.3742 22.2302 54.9542 22.6782C54.5482 23.1262 54.2752 23.6722 54.1352 24.3162L58.4612 23.9802C58.4612 23.4482 58.2652 22.9862 57.8732 22.5942C57.4812 22.2022 57.0192 22.0062 56.4872 22.0062ZM62.8016 30.1752V15.8742C62.6196 15.8042 62.4026 15.7692 62.1506 15.7692C61.9126 15.7552 61.6956 15.7622 61.4996 15.7902L61.3106 15.2442L64.0826 14.0892L64.5026 14.3832V22.5942C65.0066 22.0762 65.5386 21.6702 66.0986 21.3762C66.6726 21.0682 67.2256 20.9142 67.7576 20.9142C68.4296 20.9142 69.0246 21.1172 69.5426 21.5232C70.0606 21.9292 70.4596 22.4612 70.7396 23.1192C71.0336 23.7632 71.1806 24.4492 71.1806 25.1772C71.1806 26.2272 70.9426 27.1792 70.4666 28.0332C69.9906 28.8872 69.3326 29.5662 68.4926 30.0702C67.6526 30.5742 66.6936 30.8262 65.6156 30.8262C65.1116 30.8262 64.6356 30.7842 64.1876 30.7002C63.7536 30.6162 63.2916 30.4412 62.8016 30.1752ZM66.8546 22.3632C66.4346 22.3632 66.0216 22.4752 65.6156 22.6992C65.2096 22.9092 64.8386 23.1682 64.5026 23.4762V28.9152C64.9926 29.4892 65.6576 29.7762 66.4976 29.7762C67.1416 29.7762 67.6946 29.6152 68.1566 29.2932C68.6186 28.9712 68.9756 28.5372 69.2276 27.9912C69.4796 27.4452 69.6056 26.8292 69.6056 26.1432C69.6056 25.4852 69.4866 24.8692 69.2486 24.2952C69.0106 23.7212 68.6816 23.2592 68.2616 22.9092C67.8556 22.5452 67.3866 22.3632 66.8546 22.3632ZM73.2854 30.6582V30.0282C73.4814 30.0282 73.7614 30.0072 74.1254 29.9652C74.4894 29.9232 74.8254 29.8322 75.1334 29.6922V16.8822H70.7444C70.6184 17.3442 70.5204 17.7922 70.4504 18.2262C70.3804 18.6602 70.3104 19.0872 70.2404 19.5072H69.5684V15.8112H82.5464L82.0004 19.5702L81.3494 19.5072C81.3634 19.1012 81.3704 18.6812 81.3704 18.2472C81.3704 17.8132 81.3354 17.3582 81.2654 16.8822H76.9604V29.6922C77.2824 29.8322 77.6184 29.9232 77.9684 29.9652C78.3324 30.0072 78.6124 30.0282 78.8084 30.0282V30.6582H73.2854ZM81.3722 26.1432C81.3722 25.1212 81.5752 24.2182 81.9812 23.4342C82.3872 22.6362 82.9262 22.0132 83.5982 21.5652C84.2842 21.1172 85.0402 20.9002 85.8662 20.9142C86.5662 20.9142 87.1822 21.0892 87.7142 21.4392C88.2462 21.7892 88.6452 22.2652 88.9112 22.8672C89.1912 23.4552 89.2892 24.1062 89.2052 24.8202L82.9052 25.1562V25.2192C82.9052 25.9472 83.0522 26.6262 83.3462 27.2562C83.6402 27.8722 84.0462 28.3692 84.5642 28.7472C85.0822 29.1112 85.6702 29.2932 86.3282 29.2932C86.8042 29.2932 87.2382 29.2022 87.6302 29.0202C88.0222 28.8242 88.3512 28.6072 88.6172 28.3692L89.0582 28.7472C88.8482 29.0552 88.5542 29.3702 88.1762 29.6922C87.8122 30.0142 87.3922 30.2872 86.9162 30.5112C86.4402 30.7212 85.9292 30.8262 85.3832 30.8262C84.5992 30.8262 83.9062 30.6092 83.3042 30.1752C82.7022 29.7412 82.2262 29.1672 81.8762 28.4532C81.5402 27.7392 81.3722 26.9692 81.3722 26.1432ZM85.3622 22.0062C84.7602 22.0062 84.2492 22.2302 83.8292 22.6782C83.4232 23.1262 83.1502 23.6722 83.0102 24.3162L87.3362 23.9802C87.3362 23.4482 87.1402 22.9862 86.7482 22.5942C86.3562 22.2022 85.8942 22.0062 85.3622 22.0062ZM94.6166 30.8262C93.7906 30.8262 93.0556 30.6092 92.4116 30.1752C91.7816 29.7272 91.2846 29.1392 90.9206 28.4112C90.5706 27.6832 90.3956 26.8782 90.3956 25.9962C90.3956 25.0442 90.5986 24.1902 91.0046 23.4342C91.4246 22.6642 91.9916 22.0552 92.7056 21.6072C93.4196 21.1452 94.2106 20.9142 95.0786 20.9142C95.7366 20.9142 96.2826 20.9912 96.7166 21.1452C97.1506 21.2992 97.4936 21.4882 97.7456 21.7122C98.0116 21.9362 98.2076 22.1462 98.3336 22.3422L97.0316 23.5812C96.7236 23.1052 96.3456 22.7272 95.8976 22.4472C95.4496 22.1532 94.9806 22.0062 94.4906 22.0062C93.9726 22.0062 93.5246 22.1532 93.1466 22.4472C92.7686 22.7412 92.4816 23.1262 92.2856 23.6022C92.0896 24.0782 91.9916 24.5962 91.9916 25.1562C91.9916 25.9822 92.1596 26.7172 92.4956 27.3612C92.8316 28.0052 93.2866 28.5092 93.8606 28.8732C94.4486 29.2232 95.1206 29.3982 95.8766 29.3982C96.2406 29.3982 96.5836 29.3352 96.9056 29.2092C97.2416 29.0832 97.5216 28.9152 97.7456 28.7052L98.1866 29.1042C97.8786 29.5522 97.3956 29.9512 96.7376 30.3012C96.0796 30.6512 95.3726 30.8262 94.6166 30.8262ZM99.006 30.6582V30.0282C99.188 30.0282 99.44 30.0072 99.762 29.9652C100.084 29.9232 100.385 29.8322 100.665 29.6922V15.8742C100.483 15.8042 100.266 15.7692 100.014 15.7692C99.776 15.7552 99.559 15.7622 99.363 15.7902L99.174 15.2442L101.946 14.0892L102.366 14.3832V22.5942C102.688 22.3562 103.045 22.1112 103.437 21.8592C103.843 21.5932 104.263 21.3692 104.697 21.1872C105.131 21.0052 105.551 20.9142 105.957 20.9142C106.209 20.9142 106.496 20.9562 106.818 21.0402C107.154 21.1242 107.483 21.3132 107.805 21.6072C108.057 21.8312 108.26 22.1392 108.414 22.5312C108.582 22.9232 108.666 23.4342 108.666 24.0642V29.6922C108.946 29.8322 109.247 29.9232 109.569 29.9652C109.891 30.0072 110.143 30.0282 110.325 30.0282V30.6582H105.306V30.0282C105.488 30.0282 105.74 30.0072 106.062 29.9652C106.384 29.9232 106.685 29.8322 106.965 29.6922V24.5892C106.965 24.2392 106.951 23.9382 106.923 23.6862C106.895 23.4342 106.811 23.1962 106.671 22.9722C106.517 22.7202 106.307 22.5312 106.041 22.4052C105.789 22.2792 105.502 22.2162 105.18 22.2162C104.592 22.2162 104.053 22.3702 103.563 22.6782C103.087 22.9722 102.688 23.2452 102.366 23.4972V29.6922C102.646 29.8322 102.947 29.9232 103.269 29.9652C103.591 30.0072 103.843 30.0282 104.025 30.0282V30.6582H99.006Z" fill="url(#paint0_linear_1367_477)"/>
<defs>
<linearGradient id="paint0_linear_1367_477" x1="10.0703" y1="23.0982" x2="110.87" y2="23.0982" gradientUnits="userSpaceOnUse">
<stop stop-color="#63FFFF"/>
<stop offset="0.216346" stop-color="#FFEE00"/>
<stop offset="0.677885" stop-color="white"/>
<stop offset="1" stop-color="#00FF8C"/>
</linearGradient>
</defs>
</svg>
